<mxfile host="app.diagrams.net" modified="2021-09-20T20:24:55.074Z" agent="5.0 (Macintosh; Intel Mac OS X 10_15_7) AppleWebKit/537.36 (KHTML, like Gecko) Chrome/93.0.4577.82 Safari/537.36" etag="cFlQVNqm2rFg6Js15TJl" version="15.2.9" type="github">
  <diagram id="RTdOQaeVeiRz6Wyg-cip" name="Page-1">
    <mxGraphModel dx="922" dy="1268" grid="1" gridSize="10" guides="1" tooltips="1" connect="1" arrows="1" fold="1" page="1" pageScale="1" pageWidth="850" pageHeight="1100" math="0" shadow="0">
      <root>
        <mxCell id="0" />
        <mxCell id="1" parent="0" />
        <mxCell id="P4UFErz5QoMIRTzx7yEX-23" value="" style="rounded=0;whiteSpace=wrap;html=1;" vertex="1" parent="1">
          <mxGeometry x="180" y="420" width="540" height="380" as="geometry" />
        </mxCell>
        <mxCell id="P4UFErz5QoMIRTzx7yEX-6" style="edgeStyle=orthogonalEdgeStyle;rounded=0;orthogonalLoop=1;jettySize=auto;html=1;entryX=0.25;entryY=0;entryDx=0;entryDy=0;exitX=0.75;exitY=0;exitDx=0;exitDy=0;curved=1;" edge="1" parent="1" source="P4UFErz5QoMIRTzx7yEX-1" target="P4UFErz5QoMIRTzx7yEX-2">
          <mxGeometry relative="1" as="geometry" />
        </mxCell>
        <mxCell id="P4UFErz5QoMIRTzx7yEX-8" value="TimeStep" style="edgeLabel;html=1;align=center;verticalAlign=middle;resizable=0;points=[];" vertex="1" connectable="0" parent="P4UFErz5QoMIRTzx7yEX-6">
          <mxGeometry x="0.0468" y="2" relative="1" as="geometry">
            <mxPoint as="offset" />
          </mxGeometry>
        </mxCell>
        <mxCell id="P4UFErz5QoMIRTzx7yEX-1" value="Environment" style="rounded=1;whiteSpace=wrap;html=1;" vertex="1" parent="1">
          <mxGeometry x="210" y="490" width="120" height="60" as="geometry" />
        </mxCell>
        <mxCell id="P4UFErz5QoMIRTzx7yEX-7" style="edgeStyle=orthogonalEdgeStyle;curved=1;rounded=0;orthogonalLoop=1;jettySize=auto;html=1;exitX=0.25;exitY=1;exitDx=0;exitDy=0;entryX=0.75;entryY=1;entryDx=0;entryDy=0;" edge="1" parent="1" source="P4UFErz5QoMIRTzx7yEX-2" target="P4UFErz5QoMIRTzx7yEX-1">
          <mxGeometry relative="1" as="geometry" />
        </mxCell>
        <mxCell id="P4UFErz5QoMIRTzx7yEX-9" value="Action" style="edgeLabel;html=1;align=center;verticalAlign=middle;resizable=0;points=[];" vertex="1" connectable="0" parent="P4UFErz5QoMIRTzx7yEX-7">
          <mxGeometry y="-1" relative="1" as="geometry">
            <mxPoint as="offset" />
          </mxGeometry>
        </mxCell>
        <mxCell id="P4UFErz5QoMIRTzx7yEX-12" style="edgeStyle=orthogonalEdgeStyle;curved=1;rounded=0;orthogonalLoop=1;jettySize=auto;html=1;exitX=0.75;exitY=0;exitDx=0;exitDy=0;entryX=0.329;entryY=-0.012;entryDx=0;entryDy=0;entryPerimeter=0;" edge="1" parent="1" source="P4UFErz5QoMIRTzx7yEX-2" target="P4UFErz5QoMIRTzx7yEX-3">
          <mxGeometry relative="1" as="geometry" />
        </mxCell>
        <mxCell id="P4UFErz5QoMIRTzx7yEX-14" value="PolicyFeed" style="edgeLabel;html=1;align=center;verticalAlign=middle;resizable=0;points=[];" vertex="1" connectable="0" parent="P4UFErz5QoMIRTzx7yEX-12">
          <mxGeometry x="-0.0354" y="1" relative="1" as="geometry">
            <mxPoint as="offset" />
          </mxGeometry>
        </mxCell>
        <mxCell id="P4UFErz5QoMIRTzx7yEX-18" value="" style="edgeStyle=orthogonalEdgeStyle;curved=1;rounded=0;orthogonalLoop=1;jettySize=auto;html=1;" edge="1" parent="1" source="P4UFErz5QoMIRTzx7yEX-2" target="P4UFErz5QoMIRTzx7yEX-17">
          <mxGeometry relative="1" as="geometry" />
        </mxCell>
        <mxCell id="P4UFErz5QoMIRTzx7yEX-2" value="PlayerShell" style="rounded=1;whiteSpace=wrap;html=1;" vertex="1" parent="1">
          <mxGeometry x="390" y="490" width="120" height="60" as="geometry" />
        </mxCell>
        <mxCell id="P4UFErz5QoMIRTzx7yEX-13" style="edgeStyle=orthogonalEdgeStyle;curved=1;rounded=0;orthogonalLoop=1;jettySize=auto;html=1;exitX=0.25;exitY=1;exitDx=0;exitDy=0;entryX=0.75;entryY=1;entryDx=0;entryDy=0;" edge="1" parent="1" source="P4UFErz5QoMIRTzx7yEX-3" target="P4UFErz5QoMIRTzx7yEX-2">
          <mxGeometry relative="1" as="geometry" />
        </mxCell>
        <mxCell id="P4UFErz5QoMIRTzx7yEX-15" value="PolicyResult" style="edgeLabel;html=1;align=center;verticalAlign=middle;resizable=0;points=[];" vertex="1" connectable="0" parent="P4UFErz5QoMIRTzx7yEX-13">
          <mxGeometry x="0.0552" y="-1" relative="1" as="geometry">
            <mxPoint x="9" as="offset" />
          </mxGeometry>
        </mxCell>
        <mxCell id="P4UFErz5QoMIRTzx7yEX-3" value="Policy" style="rounded=1;whiteSpace=wrap;html=1;" vertex="1" parent="1">
          <mxGeometry x="560" y="490" width="120" height="60" as="geometry" />
        </mxCell>
        <mxCell id="P4UFErz5QoMIRTzx7yEX-22" value="" style="edgeStyle=orthogonalEdgeStyle;curved=1;rounded=0;orthogonalLoop=1;jettySize=auto;html=1;" edge="1" parent="1" source="P4UFErz5QoMIRTzx7yEX-17" target="P4UFErz5QoMIRTzx7yEX-21">
          <mxGeometry relative="1" as="geometry" />
        </mxCell>
        <mxCell id="P4UFErz5QoMIRTzx7yEX-17" value="Adder" style="rounded=1;whiteSpace=wrap;html=1;" vertex="1" parent="1">
          <mxGeometry x="390" y="600" width="120" height="60" as="geometry" />
        </mxCell>
        <mxCell id="P4UFErz5QoMIRTzx7yEX-21" value="ReplayBuffer" style="rounded=1;whiteSpace=wrap;html=1;" vertex="1" parent="1">
          <mxGeometry x="390" y="710" width="120" height="60" as="geometry" />
        </mxCell>
      </root>
    </mxGraphModel>
  </diagram>
</mxfile>
